<svg xmlns="http://www.w3.org/2000/svg" version="1.1" xmlns:xlink="http://www.w3.org/1999/xlink" xmlns:svgjs="http://svgjs.dev/svgjs" width="1500" height="1500" viewBox="0 0 1500 1500"><rect width="1500" height="1500" fill="#c0ff00"></rect><g transform="matrix(0.6666666666666666,0,0,0.6666666666666666,249.39393939393938,623.1187874191348)"><svg viewBox="0 0 396 100" data-background-color="#c0ff00" preserveAspectRatio="xMidYMid meet" height="378" width="1500" xmlns="http://www.w3.org/2000/svg" xmlns:xlink="http://www.w3.org/1999/xlink"><g id="tight-bounds" transform="matrix(1,0,0,1,0.2400000000000091,0.3496875320893764)"><svg viewBox="0 0 395.52 99.30062493582123" height="99.30062493582123" width="395.52"><g><svg viewBox="0 0 584.3283218254071 146.7034979898933" height="99.30062493582123" width="395.52"><g transform="matrix(1,0,0,1,188.8083218254071,20.27523018528916)"><svg viewBox="0 0 395.52 106.15303761931497" height="106.15303761931497" width="395.52"><g id="textblocktransform"><svg viewBox="0 0 395.52 106.15303761931497" height="106.15303761931497" width="395.52" id="textblock"><g><svg viewBox="0 0 395.52 106.15303761931497" height="106.15303761931497" width="395.52"><g transform="matrix(1,0,0,1,0,0)"><svg width="395.52" viewBox="2.2 -34 178.08 47.8" height="106.15303761931497" data-palette-color="#183d24"><path d="M3.85 0.5L3.85 0.5Q2.9 0.5 2.55-0.05 2.2-0.6 2.2-1.25L2.2-1.25Q2.2-4.35 2.83-8.35 3.45-12.35 4.35-16.3L4.35-16.3Q5.15-19.65 6.13-22.55 7.1-25.45 7.85-27.3L7.85-27.3Q8.95-29.9 10.38-31.28 11.8-32.65 13.7-32.65L13.7-32.65Q15.1-32.65 16.2-31.73 17.3-30.8 17.5-28.4L17.5-28.4Q17.8-25.5 18.2-22.55 18.6-19.6 19.1-17.18 19.6-14.75 20.15-13.45L20.15-13.45Q20.6-12.3 21.45-12.3L21.45-12.3Q22.4-12.3 23.1-13.5L23.1-13.5Q23.75-14.6 24.5-16.5 25.25-18.4 25.98-20.53 26.7-22.65 27.25-24.4L27.25-24.4Q27.9-26.3 28.73-28.23 29.55-30.15 30.85-31.43 32.15-32.7 34.1-32.7L34.1-32.7Q35.9-32.7 36.68-31.48 37.45-30.25 37.45-27.6L37.45-27.6Q37.45-25.55 37.3-23.3L37.3-23.3Q37.25-22 37.18-20.63 37.1-19.25 37.1-17.8L37.1-17.8Q37.1-15.55 37.33-13.05 37.55-10.55 38.23-8.35 38.9-6.15 40.25-4.65L40.25-4.65Q40.65-4.3 40.98-3.85 41.3-3.4 41.3-2.85L41.3-2.85Q41.3-1.6 39.98-0.58 38.65 0.45 36.95 0.45L36.95 0.45Q35.4 0.45 34.65-0.55 33.9-1.55 33.45-3.25L33.45-3.25Q32.95-5.35 32.75-7.75 32.55-10.15 32.55-12.4L32.55-12.4Q32.55-16 32.83-19.03 33.1-22.05 33.1-23.5L33.1-23.5Q33.1-24.3 32.95-24.68 32.8-25.05 32.2-25.05L32.2-25.05Q31.5-25.05 31.03-24.43 30.55-23.8 30.25-22.7L30.25-22.7Q29.6-20.6 28.8-18.2 28-15.8 27.13-13.5 26.25-11.2 25.25-9.4L25.25-9.4Q24.1-7.3 22.78-6.58 21.45-5.85 20.1-5.85L20.1-5.85Q18-5.85 16.93-7.18 15.85-8.5 15.35-10.1L15.35-10.1Q14.7-12.25 14.15-15.73 13.6-19.2 13.35-23.55L13.35-23.55Q13.25-25.4 12.15-25.4L12.15-25.4Q10.95-25.4 10.25-23.6L10.25-23.6Q9.65-21.8 9.1-19.38 8.55-16.95 8.22-14.33 7.9-11.7 7.9-9.15L7.9-9.15Q7.9-7 8.08-5.4 8.25-3.8 8.25-2.4L8.25-2.4Q8.25-1.4 7.48-0.75 6.7-0.1 5.65 0.2 4.6 0.5 3.85 0.5ZM45.9 13.8L45.9 13.8Q43.85 13.8 42.37 12.7 40.9 11.6 40.9 9.75L40.9 9.75Q40.9 8.3 41.77 7.28 42.65 6.25 43.95 6.25L43.95 6.25Q44.55 6.25 44.8 6.45 45.05 6.65 45.2 6.9L45.2 6.9Q45.6 7.55 46.12 8.03 46.65 8.5 47.55 8.5L47.55 8.5Q48.75 8.5 49.87 7.65 51 6.8 51.95 5.7L51.95 5.7Q52.8 4.75 54 2.98 55.2 1.2 56.4-1.05L56.4-1.05Q55.3-0.1 54.35 0.33 53.4 0.75 52.55 0.75L52.55 0.75Q51.5 0.75 50.5-0.03 49.5-0.8 49.25-2.95L49.25-2.95Q49.1-4.6 48.67-6.6 48.25-8.6 47.62-10.48 47-12.35 46.1-13.65L46.1-13.65Q45.75-14.25 45.3-14.55 44.85-14.85 44-14.95L44-14.95Q43.4-15 43.22-15.3 43.05-15.6 43.05-16.25L43.05-16.25Q43.05-18.05 44.05-19.15 45.05-20.25 46.75-20.25L46.75-20.25Q48.8-20.25 49.7-18.68 50.6-17.1 51.25-14.85L51.25-14.85Q51.5-13.95 51.77-12.48 52.05-11 52.27-9.3 52.5-7.6 52.6-6.05L52.6-6.05Q52.65-4.95 53.85-4.95L53.85-4.95Q55.45-4.95 56.9-5.95 58.35-6.95 59.27-8.55 60.2-10.15 60.2-11.9L60.2-11.9Q60.2-12.9 59.95-13.7 59.7-14.5 59.1-15.1L59.1-15.1Q58.6-15.7 58.3-16.07 58-16.45 58-16.95L58-16.95Q58-17.8 58.8-18.55 59.6-19.3 60.72-19.8 61.85-20.3 62.7-20.3L62.7-20.3Q64.2-20.3 64.7-18.88 65.2-17.45 64.95-15.75L64.95-15.75Q64.65-13.4 63.75-10.2 62.85-7 61.42-3.5 60 0 58.17 3.28 56.35 6.55 54.3 9L54.3 9Q52.55 11.15 50.4 12.48 48.25 13.8 45.9 13.8ZM91.04 0.6L91.04 0.6Q86.89 0.6 85.09-1.38 83.29-3.35 83.29-6.6L83.29-6.6Q83.29-7.45 83.44-8.65 83.59-9.85 83.84-11.55L83.84-11.55Q84.24-14 84.44-15.93 84.64-17.85 84.64-20.15L84.64-20.15Q84.64-22.8 84.49-24.45L84.49-24.45Q83.64-23.95 83.24-23.95L83.24-23.95Q82.44-23.95 82.44-25.75L82.44-25.75Q82.44-27.15 83.07-28.13 83.69-29.1 85.14-29.95L85.14-29.95Q86.59-30.85 88.82-31.5 91.04-32.15 93.59-32.15L93.59-32.15Q97.74-32.15 99.89-30.25 102.04-28.35 102.04-25.25L102.04-25.25Q102.04-23.25 101.19-21.55 100.34-19.85 98.79-18.55L98.79-18.55Q105.04-17.55 105.04-11.35L105.04-11.35Q105.04-8 103.14-5.25 101.24-2.5 97.99-0.95L97.99-0.95Q94.84 0.6 91.04 0.6ZM93.04-4.95L93.04-4.95Q95.29-4.95 97.12-5.58 98.94-6.2 100.04-7.4 101.14-8.6 101.14-10.2L101.14-10.2Q101.14-12.25 99.69-13.1 98.24-13.95 96.34-13.95L96.34-13.95Q95.54-13.95 94.34-13.8L94.34-13.8Q93.84-13.7 93.19-13.7L93.19-13.7Q92.09-13.7 91.37-14.6 90.64-15.5 90.64-16.85L90.64-16.85Q90.64-17.8 91.49-18.05L91.49-18.05Q97.59-19.65 97.59-23.6L97.59-23.6Q97.59-26.75 93.24-26.75L93.24-26.75Q91.64-26.75 89.29-26.2L89.29-26.2Q89.29-23.75 89.04-21.08 88.79-18.4 88.29-15.5L88.29-15.5Q87.99-13.5 87.82-12.13 87.64-10.75 87.64-9.9L87.64-9.9Q87.64-7.2 88.99-6.08 90.34-4.95 93.04-4.95ZM112.09 0.5L112.09 0.5Q110.64 0.5 109.94-0.3 109.24-1.1 109.24-3.1L109.24-3.1Q109.24-4.05 109.39-5.55 109.54-7.05 109.74-8.8L109.74-8.8Q110.04-10.95 110.27-13.3 110.49-15.65 110.49-17.8L110.49-17.8Q110.49-20.85 110.22-24.13 109.94-27.4 108.69-29.85L108.69-29.85Q108.24-30.85 108.24-31.3L108.24-31.3Q108.24-31.95 108.82-32.55 109.39-33.15 110.24-33.58 111.09-34 111.89-34L111.89-34Q113.19-34 113.84-32.83 114.49-31.65 114.69-29.63 114.89-27.6 114.89-25L114.89-25Q114.89-21.05 114.57-18.15 114.24-15.25 113.94-13.05L113.94-13.05Q113.74-11.6 113.57-10.3 113.39-9 113.39-7.95L113.39-7.95Q113.39-6.2 113.97-5.43 114.54-4.65 115.84-3.9L115.84-3.9Q116.19-3.7 116.37-3.53 116.54-3.35 116.54-3L116.54-3Q116.54-2.6 116.14-1.75 115.74-0.9 114.77-0.2 113.79 0.5 112.09 0.5ZM127.69 0.65L127.69 0.65Q124.24 0.65 122.16-1.23 120.09-3.1 120.09-6.75L120.09-6.75Q120.09-8.45 120.56-10.05 121.04-11.65 121.84-13.05L121.84-13.05Q121.04-12.55 120.64-12.55L120.64-12.55Q120.04-12.55 119.81-13.23 119.59-13.9 119.59-14.55L119.59-14.55Q119.59-15.7 120.06-16.38 120.54-17.05 120.99-17.4L120.99-17.4Q122.04-18.3 124.29-19.38 126.54-20.45 129.69-20.45L129.69-20.45Q133.99-20.45 136.36-18.05 138.74-15.65 138.74-11.35L138.74-11.35Q138.74-8 137.34-5.28 135.94-2.55 133.46-0.95 130.99 0.65 127.69 0.65ZM129.24-4.45L129.24-4.45Q131.74-4.45 133.46-6.03 135.19-7.6 135.19-10.2L135.19-10.2Q135.19-12.9 133.44-14.05 131.69-15.2 129.39-15.2L129.39-15.2Q128.34-15.2 127.49-15 126.64-14.8 125.89-14.5L125.89-14.5Q125.19-13.5 124.64-12.25 124.09-11 124.09-9.5L124.09-9.5Q124.09-7 125.59-5.73 127.09-4.45 129.24-4.45ZM148.84 13.8L148.84 13.8Q145.09 13.8 142.89 12.25 140.69 10.7 140.69 8.25L140.69 8.25Q140.69 6.45 141.81 5.05 142.94 3.65 144.79 3.65L144.79 3.65Q145.84 3.65 145.84 4.25L145.84 4.25Q145.84 4.6 145.71 5.05 145.59 5.5 145.59 5.95L145.59 5.95Q145.59 7.35 147.19 8.03 148.79 8.7 151.04 8.7L151.04 8.7Q152.44 8.7 153.89 8.4 155.34 8.1 156.31 7.48 157.29 6.85 157.29 5.8L157.29 5.8Q157.29 4.65 156.14 4.1 154.99 3.55 153.24 3.28 151.49 3 149.66 2.78 147.84 2.55 146.54 2.05L146.54 2.05Q144.89 1.5 144.09 0.7 143.29-0.1 143.29-1.35L143.29-1.35Q143.29-3.7 146.14-5.1L146.14-5.1Q144.49-5.95 143.66-7.5 142.84-9.05 142.84-10.95L142.84-10.95Q142.84-13.4 144.11-15.55 145.39-17.7 147.91-19.07 150.44-20.45 154.24-20.45L154.24-20.45Q155.94-20.45 157.69-20.13 159.44-19.8 160.61-18.93 161.79-18.05 161.79-16.4L161.79-16.4Q161.79-15.8 161.54-15.08 161.29-14.35 160.59-14.35L160.59-14.35Q160.29-14.35 159.79-14.48 159.29-14.6 158.89-14.7L158.89-14.7Q158.99-14.2 159.06-13.6 159.14-13 159.14-12.35L159.14-12.35Q159.14-9.4 157.14-7.03 155.14-4.65 151.29-4.2L151.29-4.2Q149.89-4.1 149.21-3.88 148.54-3.65 148.54-3.1L148.54-3.1Q148.54-2.6 149.14-2.38 149.74-2.15 150.69-2.05L150.69-2.05Q153.74-1.8 156.09-1.2 158.44-0.6 159.76 0.73 161.09 2.05 161.09 4.5L161.09 4.5Q161.09 7.35 159.41 9.43 157.74 11.5 154.94 12.65 152.14 13.8 148.84 13.8ZM150.74-8.55L150.74-8.55Q153.04-8.55 154.34-9.8 155.64-11.05 155.64-13.05L155.64-13.05Q155.64-13.6 155.54-14.18 155.44-14.75 155.34-15.15L155.34-15.15Q154.54-15.4 153.79-15.48 153.04-15.55 152.34-15.55L152.34-15.55Q149.69-15.55 148.19-14.55 146.69-13.55 146.69-11.8L146.69-11.8Q146.69-10.25 147.79-9.4 148.89-8.55 150.74-8.55ZM170.83 0.65L170.83 0.65Q168.98 0.65 167.38 0.1 165.78-0.45 164.78-1.45 163.78-2.45 163.78-3.85L163.78-3.85Q163.78-4.6 164.16-5.28 164.53-5.95 165.38-5.95L165.38-5.95Q165.83-5.95 166.33-5.7L166.33-5.7Q167.23-5.2 168.63-4.78 170.03-4.35 171.58-4.35L171.58-4.35Q173.33-4.35 174.68-4.85 176.03-5.35 176.03-6.25L176.03-6.25Q176.03-6.95 175.01-7.25 173.98-7.55 171.58-7.9L171.58-7.9Q169.93-8.2 168.38-8.6 166.83-9 165.83-9.98 164.83-10.95 164.83-12.85L164.83-12.85Q164.83-14.7 165.86-16.43 166.88-18.15 168.93-19.3 170.98-20.45 173.93-20.45L173.93-20.45Q175.48-20.45 176.93-20.1 178.38-19.75 179.33-19.05 180.28-18.35 180.28-17.3L180.28-17.3Q180.28-16.4 179.66-15.65 179.03-14.9 178.21-14.43 177.38-13.95 176.83-13.95L176.83-13.95Q176.43-13.95 175.88-14.5L175.88-14.5Q175.03-15.2 174.01-15.48 172.98-15.75 171.98-15.75L171.98-15.75Q170.48-15.75 169.56-15.3 168.63-14.85 168.63-14.15L168.63-14.15Q168.63-13.5 169.41-13.1 170.18-12.7 171.33-12.53 172.48-12.35 173.53-12.2L173.53-12.2Q176.43-11.8 178.13-10.83 179.83-9.85 179.83-7.4L179.83-7.4Q179.83-5.5 178.76-3.63 177.68-1.75 175.66-0.55 173.63 0.65 170.83 0.65Z" opacity="1" transform="matrix(1,0,0,1,0,0)" fill="#183d24" class="wordmark-text-0" data-fill-palette-color="primary" id="text-0"></path></svg></g></svg></g></svg></g></svg></g><g><svg viewBox="0 0 163.7481373163897 146.7034979898933" height="146.7034979898933" width="163.7481373163897"><g><svg xmlns="http://www.w3.org/2000/svg" xmlns:xlink="http://www.w3.org/1999/xlink" version="1.1" x="0" y="0" viewBox="0.985 6.087 98.03 87.826" enable-background="new 0 0 100 100" xml:space="preserve" height="146.7034979898933" width="163.7481373163897" class="icon-icon-0" data-fill-palette-color="accent" id="icon-0"><path d="M50 6.087C22.93 6.087 0.985 25.748 0.985 50 0.985 74.253 22.93 93.913 50 93.913S99.015 74.253 99.015 50 77.07 6.087 50 6.087M74.833 69.08C42.708 88.246 13.982 68.413 8.454 62.626 22.946 73.957 45.742 77.477 64.833 69.413 76.146 64.037 82.172 56.755 85 47.079 87.829 36.328 84.464 26.114 73.857 19.125 63.958 12.674 51.229 10.524 38.502 13.749 28.603 16.975 20.824 22.888 17.996 31.489 14.461 40.628 20.825 49.766 31.431 54.604 42.037 58.367 56.887 56.754 62.544 48.154 66.079 42.24 64.665 34.714 56.887 30.951 53.352 29.338 48.584 28.996 46.027 31.125 42.506 34.057 47.917 31.486 51.901 33.331 54.418 34.496 57.501 36.496 56.887 41.703 56.115 48.262 45.574 51.38 38.502 49.229 30.724 46.541 27.188 40.628 27.896 34.714 29.31 28.263 35.674 23.425 43.453 21.812 56.888 19.124 68.908 26.113 73.151 35.79 76.686 44.928 71.03 53.529 61.13 58.905 52.646 63.206 42.745 64.281 33.553 61.593 20.118 57.83 10.926 48.692 10.219 37.403 9.511 22.888 22.238 12.137 39.916 8.374 59.715 5.149 79.514 12.675 87.999 26.651 95.777 41.166 91.609 59.071 74.833 69.08" fill="#183d24" data-fill-palette-color="accent"></path></svg></g></svg></g></svg></g><defs></defs></svg><rect width="395.52" height="99.30062493582123" fill="none" stroke="none" visibility="hidden"></rect></g></svg></g></svg>